<?xml version="1.0" encoding="utf-8"?>
<svg viewBox="-1.93 319.28 647.37 624.84" width="647.37" height="624.84" xmlns="http://www.w3.org/2000/svg">
  <defs>
    <style type="text/css">
	.st0{fill:url(#SVGID_1_);}
	.st1{fill:#603813;}
	.st2{fill:url(#SVGID_2_);}
	.st3{fill:#6CE700;}
	.st4{fill:#7DF91C;}
</style>
  </defs>
  <g>
    <g>
      <linearGradient id="SVGID_1_" gradientUnits="userSpaceOnUse" x1="108.7302" y1="683.8784" x2="696.3234" y2="683.8784" gradientTransform="matrix(-1.346900e-10 1 1 1.346900e-10 -343.5925 245.5923)">
        <stop offset="0" style="stop-color:#00FF00"/>
        <stop offset="1" style="stop-color:#603813"/>
      </linearGradient>
      <path class="st0" d="M271.67,683.3c-23.76,13.79-55.33,8.45-75.06-10.09c-10.37-9.75-17.6-23.45-17.2-37.93 c0.21-7.49,2.75-15.16,8.68-20.07c6.66-5.51,15.88-6.03,23.9-3.65c19.53,5.78,28.17,26.39,34.99,43.69 c0.84-0.49,1.67-0.97,2.51-1.46c-11.7-14.84-25.09-28.15-40.03-39.73c-0.78-0.6-2.31-0.59-2.51,0.66 c-2.82,17.54,10.74,34.14,29.08,31.18c21.47-3.46,31.04-24.81,34.16-44.02c3.65-22.46,6.37-47.9-3.8-69.04 c-9.06-18.82-26.69-34.38-45.79-42.51c-18.42-7.84-40.75-7.15-53.95,9.66c-10.66,13.58-8.52,32.96,7.5,41.19 c6.26,3.22,13.97,4.13,20.31,0.59c6.76-3.79,10.34-11.6,14.38-17.84c2.06-3.19,4.44-6.91,7.98-8.63 c6.3-3.07,12.43,2.66,16.68,6.78c7.14,6.91,18.84,25.04,2.55,29.5c-12.62,3.46-23.21-8.69-35.26-10.19 c-8.32-1.03-17.76,1.52-23.17,8.25c-5.22,6.5-4.77,14.93,0.64,21.18c4.93,5.69,12.84,8.21,19.07,3.18 c0.93-0.75,0.31-2.19-0.66-2.51c-20.98-6.75-43.79-4.44-63.02,6.32c-0.6,0.34-0.83,1.05-0.69,1.69c2.39,11.07,15,16.94,25.52,13.9 c13.46-3.9,19.65-19.22,20.2-32.01c0.39-9.13-1.46-18.18-3.27-27.08c-2.04-10.05-3.84-20.15-5.22-30.32 c-2.73-20.19-3.99-40.57-3.8-60.94c0.31-32.43,4.25-73.45,41.1-84.09c32.45-9.37,69.45,5.08,94.52,25.67 c27.52,22.6,44.63,55.28,51.17,90c1.71,9.08,2.7,18.28,3,27.51c0.28,8.57,1.52,20.63-6.08,26.54 c-15.49,12.03-35.47-8.53-45.7-18.74c-11.58-11.54-21.21-27.58-14.57-44.21c3.1-7.77,9.82-13.26,18.4-13.43 c9.69-0.19,18.67,5.75,26.36,11.01c14.31,9.78,28.66,19.24,45.78,23.32c14.33,3.42,29.35,2.64,42.63-4.02 c24.2-12.15,39.99-40.38,35.79-67.4c-4.14-26.6-27.36-48.7-53.7-53.04c-6.28-1.03-12.55-0.99-18.83,0.01 c-0.7,0.11-1.03,0.84-1.1,1.45c-1.65,13.45,7.85,26.96,21.8,27.95c6.3,0.44,12.77-1.6,17.58-5.71c7.29-6.23,9.82-17.85,21.83-15.2 c8.88,1.96,17.69,8.41,24.6,14.1c6.84,5.63,12.97,12.12,18.3,19.19c10.93,14.48,18.51,31.18,23.42,48.6 c2.81,9.96,4.78,20.14,6.14,30.4c0.68,5.11,1.2,10.24,1.59,15.38c0.26,3.33,2.74,15.27-1.39,17.01 c-3.33,1.41-9.61-0.91-12.97-1.88c-4.73-1.36-9.29-3.26-13.71-5.43c-7.82-3.85-15.21-8.5-22.73-12.89 c-15.87-9.27-32.58-15.94-50.95-18.08c-15.27-1.78-32.32-1.21-39,15.07c-9.65,23.52-6.91,63.18,24.35,67.6 c16.36,2.31,32.52-6,46.01-14.27c16.04-9.84,35.56-22.75,55.17-15.98c16.94,5.85,26.43,23.81,31.83,39.73 c6.39,18.82,8.8,38.91,7.18,58.71c-0.74,9.02-1.41,21.32-6.43,29.21c-5.28,8.31-19.37,8.52-28.03,9.55 c-5,0.6-10.01,1.04-15.03,1.33c-5.14,0.3-13.47,1.96-16.85-2.95c-2.46-3.58-2.83-9.08-3.3-13.29c-0.49-4.31-0.66-8.65-0.47-12.98 c0.74-16.73,7.92-34.86,24.68-41.17c6.86-2.58,14.68-3.18,21.7-0.88c7.88,2.58,15.84,9.92,15.18,18.87 c-2.21,30.18-92.45-20.32-104.65-26.22c-17.33-8.39-35.29-15.51-53.68-21.21c-9.72-3.02-19.56-5.65-29.5-7.87 c-8.45-1.89-17.08-3.83-25.78-3.89c-13.64-0.1-26.31,6.08-31.19,19.39c-4.84,13.2-1.68,28.63,3.12,41.36 c5.16,13.68,12.87,28.64,27.51,33.81c14.18,5,30.1-0.21,42.22-8.02c26.57-17.11,41.92-49.35,46.66-79.73 c4.55-29.18,1.45-63.68-17.28-87.73c-7.65-9.82-21.79-21.33-35.23-18.78c-14.73,2.79-16.6,26.16-16.08,37.91 c1.61,36.66,26.65,65.15,47.71,92.88c11.36,14.96,21.85,30.66,27.8,48.63c6.23,18.82,8.05,38.69,9.46,58.36 c2.64,36.87,7.17,72.79,18.13,108.24c10.65,34.41,25.88,67.43,45.29,97.78c9.41,14.72,19.82,28.77,31.08,42.11 c1.25,1.48,3.36-0.65,2.12-2.12c-47.46-56.22-78.55-125.74-89.18-198.53c-5.44-37.26-2.3-76.83-16.1-112.48 c-13.2-34.1-41.82-58.39-59.26-89.96c-8.96-16.21-15.57-35-13.88-53.77c0.74-8.2,2.85-22.36,11.77-25.62 c8.55-3.12,19.34,3.26,25.73,8.58c25.18,20.97,29.48,60.43,25.42,90.85c-4.31,32.29-20.94,68.06-50.96,83.86 c-16.29,8.57-36.46,9.71-48.81-5.97c-9.81-12.45-16.22-30.37-16.56-46.22c-0.16-7.22,1.15-14.76,5.38-20.77 c5.4-7.67,14.45-10.87,23.54-11.07c9.56-0.21,19.09,2.06,28.35,4.18c9.62,2.21,19.15,4.79,28.57,7.74 c19.55,6.12,38.53,13.86,56.87,22.99c16.59,8.25,32.81,17.32,50.03,24.24c8.98,3.61,18.23,6.61,27.74,8.47 c6.24,1.22,13.29,2.13,19.26-0.69c13.07-6.18,6.44-22.56-2.73-28.94c-10.19-7.09-24.34-6.25-35-0.73 c-13,6.74-19.8,20.94-21.82,34.91c-1.06,7.33-0.93,14.77,0.04,22.1c0.76,5.77,1.47,13.86,7.58,16.59 c3.56,1.59,7.79,1.09,11.56,0.93c5.03-0.21,10.05-0.58,15.05-1.1c8.45-0.88,17.97-1.41,25.9-4.64c6.56-2.67,9.85-8.03,11.6-14.67 c2.34-8.87,3.53-18.18,4-27.33c0.96-18.58-1.6-37.43-7.59-55.04c-4.79-14.09-12.14-28.52-24.71-37.17 c-13.95-9.6-30.52-7.25-45.14-0.52c-16.81,7.73-31.14,20.36-49.41,24.89c-18.18,4.51-35.52-2.91-40.94-21.53 c-2.17-7.46-2.41-15.4-1.55-23.09c0.95-8.51,2.9-19.15,9.09-25.44c6.62-6.72,17.4-6.6,26.12-5.98c9.89,0.7,19.67,2.71,29.05,5.91 c17.68,6.04,32.45,17.43,49.13,25.49c7.16,3.46,14.72,6.26,22.65,7.26c6.37,0.81,9.94-1.2,9.92-7.96 c-0.06-19.16-3.2-39.21-8.31-57.64c-4.7-16.97-11.85-33.34-22.13-47.7c-9.09-12.69-20.51-23.86-34.08-31.7 c-6.25-3.61-14.06-7.7-21.46-5.36c-7.46,2.36-9.88,10.57-15.24,15.4c-6.52,5.87-16.66,7.08-24.29,2.72 c-7.8-4.45-11.54-13.71-10.48-22.37c-0.37,0.48-0.73,0.96-1.1,1.45c30.71-4.9,62.13,18.04,68.34,48.23 c6.33,30.74-15.77,64.34-46.33,71.13c-18.45,4.1-37.56-2.12-53.6-11.08c-14.25-7.96-27.89-22.62-44.93-23.96 c-13.4-1.06-23.09,9.08-25.31,21.65c-2.57,14.59,4.58,27.69,14.24,38.12c5.68,6.14,12.12,11.81,18.73,16.94 c5.67,4.4,12.1,8.28,19.42,8.85c6.19,0.48,12.81-1.42,16.87-6.33c4.51-5.44,4.76-12.94,4.79-19.68 c0.17-34.92-9.46-70.47-29.76-99.12c-18.37-25.93-45.76-45.91-76.82-53.4c-29.94-7.22-64.86-2.36-79.5,28.04 c-6.49,13.46-8.58,28.66-9.35,43.44c-1.07,20.25-0.39,40.65,1.59,60.83c1.93,19.7,6.38,38.79,9.33,58.3 c2.35,15.59-0.14,43.41-21.46,44.14c-7.91,0.27-15.7-4.52-17.42-12.47c-0.23,0.56-0.46,1.13-0.69,1.69 c18.55-10.38,40.48-12.53,60.71-6.01c-0.22-0.84-0.44-1.67-0.66-2.51c-7.59,6.12-17.91-3.4-18.41-11.39 c-0.59-9.52,9.45-15.37,17.72-16.2c15.67-1.57,31.57,18.3,46.85,8.15c14.45-9.6-0.19-28-9.03-35.4 c-4.85-4.06-10.83-7.57-17.06-4.33c-5.2,2.7-8.32,8.49-11.28,13.27c-3.85,6.22-8.01,13.55-15.88,14.88 c-8.07,1.37-16.59-3.3-21.29-9.68c-12.2-16.57,4.26-37.33,20.98-41.72c20.71-5.44,42.68,7.09,57.47,20.62 c16.18,14.8,24.9,33.66,24.98,55.66c0.04,12.26-1.13,24.93-3.26,37c-1.96,11.06-5.52,22.7-13.71,30.8 c-7.11,7.04-17.81,11.73-27.82,8.93c-11.43-3.2-17.46-15.74-15.65-26.95c-0.84,0.22-1.67,0.44-2.51,0.66 c14.94,11.58,28.33,24.89,40.03,39.73c0.91,1.16,3.04-0.1,2.51-1.46c-6.58-16.71-14.51-35.91-31.94-43.84 c-14.36-6.53-32.4-3.47-38.98,12.22c-6.01,14.32-1.05,31.51,7.69,43.57c9.04,12.47,22.59,21.28,37.41,25.28 c16.48,4.46,34.29,2.84,49.15-5.78C274.85,684.92,273.34,682.33,271.67,683.3L271.67,683.3z"/>
    </g>
  </g>
  <g>
    <g>
      <path class="st1" d="M339.47,712.71c8.39,69.55,13.53,139.47,15.4,209.51c0.05,1.93,3.05,1.93,3,0 c-1.87-70.03-7.01-139.95-15.4-209.51C342.24,710.82,339.24,710.79,339.47,712.71L339.47,712.71z"/>
    </g>
  </g>
  <g>
    <g>
      <linearGradient id="SVGID_2_" gradientUnits="userSpaceOnUse" x1="306.3745" y1="894.6706" x2="472.9211" y2="894.6706" gradientTransform="matrix(-1.346900e-10 1 1 1.346900e-10 -343.5925 245.5923)">
        <stop offset="0" style="stop-color:#00FF00"/>
        <stop offset="1" style="stop-color:#005502"/>
      </linearGradient>
      <path class="st2" d="M459.71,682.93c27.44,0.97,53.45,10.07,79.16,18.94c12.49,4.31,25,8.6,37.79,11.94 c11.67,3.04,25.6,7.12,37.75,5.44c10.97-1.52,16.65-11.13,20.67-20.47c4.82-11.17,7.63-23.13,8.52-35.25 c1.84-24.9-4.81-50.31-19.32-70.7c-14.43-20.27-35.55-35.29-59.59-41.82c-1.87-0.51-2.66,2.39-0.8,2.89 c45.24,12.29,76.83,54.4,77,101.12c0.04,12.33-1.98,24.66-6.09,36.29c-4.38,12.4-10.49,25.56-25.63,25.19 c-12.57-0.31-25.48-3.75-37.51-7.16c-11.62-3.3-23.04-7.26-34.45-11.2c-25.16-8.69-50.67-17.24-77.51-18.2 C457.78,679.86,457.78,682.86,459.71,682.93L459.71,682.93z"/>
    </g>
  </g>
  <g>
    <g>
      <path class="st3" d="M348.59,395.32c-5.4-25.19,11.21-49.32,33.05-60.55c25.6-13.16,56.06-5.88,79.98,7.48 c45.53,25.43,78.68,72.28,94.78,121.17c9.1,27.62,12.98,56.77,11.2,85.81c-0.12,1.93,2.88,1.92,3,0 c3.39-55.12-13.75-110.98-46.98-155.04c-16.84-22.33-37.95-42.49-62.74-55.75c-23.6-12.63-52.9-19.16-78.18-7.5 c-24.41,11.25-42.89,37.74-37,65.2C346.1,398.01,348.99,397.21,348.59,395.32L348.59,395.32z"/>
    </g>
  </g>
  <g>
    <g>
      <path class="st4" d="M0,492.43c1.93,0,1.93-3,0-3S-1.93,492.43,0,492.43L0,492.43z"/>
    </g>
  </g>
</svg>