<?xml version="1.0" encoding="utf-8"?>
<svg viewBox="435.98 137.414 227.077 225.17" width="227.077" height="225.17" xmlns="http://www.w3.org/2000/svg">
  <g id="Pen" opacity="1.000" transform="matrix(0, 1.199081, -1.288532, 0, 818.128113, -362.22403)">
    <path id="STROKE_d06e6aef-8b62-4d95-a957-b79aef2e88e9" stroke-opacity="1.000" stroke-linecap="round" stroke-linejoin="round" d="M 572.258 205.701 Q 569.047 205.534 563.809 205.189 Q 558.570 204.844 553.629 204.401 Q 548.688 203.958 542.667 203.020 Q 536.647 202.081 530.274 200.583 Q 523.901 199.085 517.053 196.956 Q 510.205 194.826 506.269 193.360 Q 502.333 191.893 499.487 190.699 Q 496.641 189.505 491.037 186.866 Q 485.433 184.228 483.132 183.019 Q 480.832 181.809 475.054 178.398 Q 469.275 174.987 464.914 171.960 Q 460.553 168.933 456.134 165.294 Q 451.716 161.656 449.148 159.243 Q 446.580 156.829 442.197 152.103 Q 437.815 147.378 435.024 143.748 Q 432.233 140.118 430.400 137.405 Q 428.566 134.692 426.040 130.495 Q 425.923 130.332 424.190 127.376 " style="fill: none; stroke-width: 6.81726px; stroke: rgb(161, 161, 161);"/>
    <path id="STROKE_cced8538-2244-445c-9ae9-7f42d9109bfc" stroke-opacity="1.000" stroke-linecap="round" stroke-linejoin="round" d="M 572.333 212.819 C 570.193 212.931 567.377 213.102 563.885 213.331 C 560.392 213.561 556.999 213.824 553.705 214.119 C 550.41 214.414 546.756 214.875 542.743 215.5 C 538.73 216.126 534.599 216.938 530.35 217.937 C 526.101 218.936 521.694 220.145 517.129 221.564 C 512.564 222.984 508.969 224.183 506.345 225.16 C 503.721 226.138 501.46 227.025 499.563 227.821 C 497.666 228.617 494.849 229.895 491.113 231.654 C 487.377 233.413 484.742 234.696 483.208 235.502 C 481.675 236.308 478.982 237.848 475.129 240.122 C 471.277 242.397 467.897 244.543 464.99 246.56 C 462.083 248.578 459.156 250.8 456.21 253.226 C 453.265 255.651 450.936 257.669 449.223 259.278 C 447.511 260.887 445.194 263.266 442.273 266.417 C 439.351 269.567 436.96 272.352 435.1 274.772 C 433.239 277.192 431.698 279.306 430.476 281.115 C 429.253 282.924 427.8 285.227 426.116 288.025 C 426.038 288.134 425.421 289.174 424.266 291.144" style="fill: none; stroke-width: 6.81726px; stroke: rgb(161, 161, 161);"/>
    <path id="STROKE_0e167cb9-c200-47da-969e-a8cc26f40d9c" stroke-width="2.133" stroke-opacity="1.000" stroke-linecap="round" stroke-linejoin="round" d="M 573.429 207.856 C 573.547 207.542 573.681 207.184 573.83 206.781 C 573.979 206.379 574.139 205.97 574.31 205.553 C 574.48 205.136 574.658 204.729 574.845 204.333 C 575.032 203.937 575.256 203.49 575.518 202.992 C 575.779 202.494 576.112 201.937 576.515 201.321 C 576.919 200.706 577.402 200.086 577.965 199.461 C 578.528 198.836 579.03 198.34 579.471 197.971 C 579.911 197.602 580.362 197.268 580.823 196.968 C 581.285 196.669 582.102 196.305 583.274 195.878 C 584.447 195.451 585.362 195.196 586.021 195.112 C 586.68 195.028 587.189 194.984 587.548 194.98 C 587.907 194.975 588.351 194.992 588.881 195.029 C 589.41 195.067 590.099 195.192 590.947 195.405 C 591.796 195.618 592.692 195.982 593.637 196.496 C 594.582 197.011 595.334 197.505 595.893 197.978 C 596.452 198.452 596.946 198.966 597.375 199.519 C 597.805 200.072 598.195 200.707 598.546 201.422 C 598.897 202.137 599.186 202.931 599.415 203.805 C 599.643 204.68 599.774 205.659 599.807 206.743 C 599.84 207.826 599.731 209.005 599.479 210.279 C 599.227 211.553 598.92 212.667 598.558 213.621 C 598.197 214.574 597.855 215.342 597.534 215.925 C 597.213 216.507 596.802 217.165 596.302 217.899 C 595.803 218.632 595.362 219.212 594.98 219.639 C 594.599 220.066 594.15 220.499 593.633 220.938 C 593.116 221.377 592.577 221.749 592.015 222.056 C 591.453 222.363 590.86 222.624 590.236 222.841 C 589.612 223.058 588.814 223.205 587.843 223.284 C 586.872 223.363 585.964 223.333 585.118 223.196 C 584.272 223.059 583.629 222.908 583.189 222.744 C 582.749 222.58 582.324 222.398 581.914 222.199 C 581.505 222 581.083 221.759 580.648 221.476 C 580.213 221.193 579.708 220.794 579.131 220.278 C 578.554 219.762 578.071 219.286 577.683 218.849 C 577.295 218.413 577.032 218.113 576.893 217.95 C 576.754 217.787 576.512 217.458 576.166 216.965 C 575.821 216.472 575.53 216.048 575.295 215.693 C 575.06 215.338 574.838 215.009 574.627 214.706 C 574.416 214.403 573.985 213.797 573.333 212.89" style="fill: none; stroke: rgb(161, 161, 161);"/>
  </g>
</svg>