<?xml version="1.0" encoding="utf-8"?>
<svg viewBox="300 100 300 224.947" width="475.106" height="351.054" xmlns="http://www.w3.org/2000/svg">
  <g id="Layer_Copy_1" opacity="1.000" transform="matrix(0, 0.531269, -0.53917, 0, 601.48822, -88.173615)">
    <path id="STROKE_e437ad53-ff65-484e-a248-475665858697" opacity="0.680" fill="none" stroke-width="2.163" stroke-opacity="1.000" stroke-linecap="round" stroke-linejoin="round" d="M 543.593 260.020 Q 543.694 259.986 544.062 259.847 Q 544.429 259.707 545.017 259.569 Q 545.605 259.431 546.012 259.380 Q 546.420 259.328 547.437 259.199 Q 548.455 259.069 549.308 258.992 Q 550.161 258.914 551.287 258.846 Q 552.414 258.778 555.990 258.575 Q 559.566 258.372 568.879 257.125 Q 568.963 257.038 569.052 256.879 Q 569.141 256.721 569.478 256.475 " stroke="#ceccc5"/>
    <path id="STROKE_48d1a778-2d77-4f02-9716-f283c2f0a89c" opacity="0.680" fill="none" stroke-width="2.475" stroke-opacity="1.000" stroke-linecap="round" stroke-linejoin="round" d="M 592.104 255.652 Q 592.480 255.556 595.377 255.457 Q 598.274 255.359 600.804 255.357 Q 603.333 255.355 611.008 254.870 Q 611.206 254.742 611.225 254.558 Q 611.244 254.375 611.312 254.236 " stroke="#ceccc5"/>
    <path id="STROKE_092c8032-18c9-4e4a-8b6b-697bc301617f" opacity="0.680" fill="none" stroke-width="2.869" stroke-opacity="1.000" stroke-linecap="round" stroke-linejoin="round" d="M 639.740 250.896 L 639.904 250.921 Q 640.256 250.867 644.372 251.234 Q 648.488 251.602 652.556 251.528 L 653.627 251.294 " stroke="#ceccc5"/>
    <path id="STROKE_e1982aae-a4f1-481d-b95d-d69fae9813e6" opacity="0.680" fill="none" stroke-width="4.499" stroke-opacity="1.000" stroke-linecap="round" stroke-linejoin="round" d="M 707.620 313.218 Q 707.634 313.309 707.707 313.452 Q 707.779 313.595 711.024 318.077 Q 714.270 322.559 716.831 326.481 Q 719.393 330.403 720.259 332.090 Q 721.126 333.777 721.469 335.366 Q 721.349 335.490 720.911 335.332 Q 720.474 335.175 719.618 334.640 " stroke="#ceccc5"/>
    <path id="STROKE_0bcf2584-0af3-4f1c-9d3b-c44fd84c2ff8" opacity="0.680" fill="none" stroke-width="2.158" stroke-opacity="1.000" stroke-linecap="round" stroke-linejoin="round" d="M 684.796 278.129 Q 684.967 278.268 686.296 279.707 Q 687.625 281.146 689.258 283.116 Q 690.890 285.086 691.773 286.273 Q 692.657 287.461 693.745 289.231 Q 694.832 291.001 695.595 293.271 L 695.856 294.479 " stroke="#ceccc5"/>
    <path id="STROKE_a3f8d897-8d2a-43e4-b151-abf4ba00ca99" opacity="0.680" fill="none" stroke-width="3.263" stroke-opacity="1.000" stroke-linecap="round" stroke-linejoin="round" d="M 664.132 253.968 Q 664.229 254.077 664.030 253.759 Q 664.075 253.733 665.862 255.163 Q 667.650 256.593 669.266 258.285 Q 670.882 259.977 672.160 261.837 Q 673.439 263.697 674.332 265.889 L 674.488 266.617 " stroke="#ceccc5"/>
    <path id="STROKE_57d68019-f8be-4b5c-85ec-c86c1758dbb7" opacity="0.680" fill="none" stroke-width="2.724" stroke-opacity="1.000" stroke-linecap="round" stroke-linejoin="round" d="M 660.058 74.265 Q 660.521 74.964 660.568 75.110 Q 660.925 75.720 661.822 78.024 Q 662.719 80.328 662.991 83.004 Q 663.263 85.680 662.995 88.231 Q 662.726 90.782 662.387 92.761 Q 662.048 94.740 661.720 98.657 Q 661.392 102.575 661.383 105.123 Q 661.373 107.672 661.841 111.931 Q 662.309 116.189 662.564 117.849 " stroke="#ceccc5"/>
    <path id="STROKE_97bea0ef-5885-4df9-8adb-7fe1279c4ad6" opacity="0.680" fill="none" stroke-width="2.638" stroke-opacity="1.000" stroke-linecap="round" stroke-linejoin="round" d="M 661.700 136.708 Q 662.101 137.004 662.383 137.260 Q 662.665 137.516 663.599 139.759 Q 664.534 142.001 664.872 143.773 Q 665.210 145.545 665.349 147.771 Q 665.488 149.996 665.265 152.965 Q 665.042 155.933 663.937 159.349 Q 662.832 162.765 662.404 163.820 " stroke="#ceccc5"/>
    <path id="STROKE_5313cef5-b900-4cba-8591-705401dd6952" opacity="0.680" fill="none" stroke-width="2.472" stroke-opacity="1.000" stroke-linecap="round" stroke-linejoin="round" d="M 665.354 186.177 Q 665.612 186.445 665.689 186.628 Q 666.254 187.279 666.940 191.683 Q 667.626 196.087 667.326 200.571 Q 667.027 205.056 666.458 207.647 Q 665.889 210.237 665.625 211.291 " stroke="#ceccc5"/>
    <path id="STROKE_8abe048a-6578-435c-a959-45d0b8f76d8e" opacity="0.680" fill="none" stroke-width="2.615" stroke-opacity="1.000" stroke-linecap="round" stroke-linejoin="round" d="M 667.502 225.550 Q 667.323 226.235 667.267 245.945 " stroke="#ceccc5"/>
    <path id="STROKE_14b6b55b-b404-48a0-95e4-693b5f35832c" opacity="0.680" fill="none" stroke-width="2.163" stroke-opacity="1.000" stroke-linecap="round" stroke-linejoin="round" d="M 393.266 434.524 Q 393.368 434.491 393.735 434.351 Q 394.103 434.212 394.690 434.074 Q 395.278 433.936 395.686 433.885 Q 396.093 433.833 397.111 433.704 Q 398.128 433.574 398.981 433.496 Q 399.835 433.419 400.961 433.351 Q 402.087 433.283 405.663 433.080 Q 409.239 432.877 418.553 431.630 Q 418.636 431.543 418.725 431.384 Q 418.815 431.226 419.151 430.980 " stroke="#ceccc5"/>
    <path id="STROKE_791e233c-9a31-4e3f-8efb-9682cf556154" opacity="0.680" fill="none" stroke-width="2.475" stroke-opacity="1.000" stroke-linecap="round" stroke-linejoin="round" d="M 441.778 430.157 Q 442.153 430.061 445.050 429.962 Q 447.948 429.863 450.477 429.862 Q 453.007 429.860 460.682 429.375 Q 460.879 429.246 460.898 429.063 Q 460.918 428.880 460.985 428.741 " stroke="#ceccc5"/>
    <path id="STROKE_b6048176-88ce-411e-8c85-fcb9774ee8a3" opacity="0.680" fill="none" stroke-width="2.869" stroke-opacity="1.000" stroke-linecap="round" stroke-linejoin="round" d="M 489.413 425.401 L 489.577 425.425 Q 489.929 425.372 494.045 425.739 Q 498.162 426.107 502.230 426.032 L 503.300 425.798 " stroke="#ceccc5"/>
    <path id="STROKE_64ad7294-21d5-4296-8fa5-4d1cad9e5499" opacity="0.680" fill="none" stroke-width="4.499" stroke-opacity="1.000" stroke-linecap="round" stroke-linejoin="round" d="M 557.293 487.723 Q 557.308 487.814 557.380 487.957 Q 557.453 488.100 560.698 492.582 Q 563.943 497.064 566.504 500.986 Q 569.066 504.908 569.932 506.595 Q 570.799 508.281 571.142 509.871 Q 571.022 509.995 570.585 509.837 Q 570.147 509.680 569.291 509.144 " stroke="#ceccc5"/>
    <path id="STROKE_dd7ef5b8-85f0-4b50-ac88-4bf139938f84" opacity="0.680" fill="none" stroke-width="2.158" stroke-opacity="1.000" stroke-linecap="round" stroke-linejoin="round" d="M 534.469 452.634 Q 534.641 452.773 535.970 454.212 Q 537.298 455.651 538.931 457.621 Q 540.563 459.591 541.447 460.778 Q 542.330 461.966 543.418 463.736 Q 544.506 465.506 545.269 467.776 L 545.529 468.984 " stroke="#ceccc5"/>
    <path id="STROKE_e0bc0492-8a9e-4715-98b8-e141c5a01790" opacity="0.680" fill="none" stroke-width="3.263" stroke-opacity="1.000" stroke-linecap="round" stroke-linejoin="round" d="M 513.805 428.473 Q 513.902 428.582 513.703 428.264 Q 513.748 428.238 515.536 429.668 Q 517.323 431.098 518.939 432.790 Q 520.555 434.482 521.834 436.342 Q 523.112 438.202 524.005 440.394 L 524.162 441.122 " stroke="#ceccc5"/>
    <path id="STROKE_3ce35e91-f4f3-488b-b656-1743a712df1b" opacity="0.680" fill="none" stroke-width="2.724" stroke-opacity="1.000" stroke-linecap="round" stroke-linejoin="round" d="M 509.732 248.770 Q 510.195 249.469 510.242 249.615 Q 510.599 250.225 511.496 252.529 Q 512.392 254.833 512.665 257.509 Q 512.937 260.185 512.668 262.736 Q 512.399 265.287 512.060 267.266 Q 511.722 269.245 511.394 273.162 Q 511.066 277.080 511.056 279.628 Q 511.047 282.177 511.514 286.435 Q 511.982 290.694 512.237 292.354 " stroke="#ceccc5"/>
    <path id="STROKE_726f893a-f115-41d8-b717-1c48a4213dc6" opacity="0.680" fill="none" stroke-width="2.638" stroke-opacity="1.000" stroke-linecap="round" stroke-linejoin="round" d="M 511.373 311.213 Q 511.774 311.509 512.056 311.765 Q 512.338 312.021 513.273 314.263 Q 514.207 316.506 514.545 318.278 Q 514.884 320.050 515.023 322.276 Q 515.161 324.501 514.939 327.470 Q 514.716 330.438 513.611 333.854 Q 512.505 337.270 512.077 338.325 " stroke="#ceccc5"/>
    <path id="STROKE_50a38e2e-be4c-4bd3-a250-d9b75502b6eb" opacity="0.680" fill="none" stroke-width="2.472" stroke-opacity="1.000" stroke-linecap="round" stroke-linejoin="round" d="M 515.027 360.682 Q 515.285 360.950 515.362 361.132 Q 515.927 361.784 516.613 366.188 Q 517.299 370.592 517.000 375.076 Q 516.700 379.561 516.131 382.151 Q 515.563 384.742 515.299 385.796 " stroke="#ceccc5"/>
    <path id="STROKE_ea3eaaa4-2681-4781-8555-b640945d2d08" opacity="0.680" fill="none" stroke-width="2.615" stroke-opacity="1.000" stroke-linecap="round" stroke-linejoin="round" d="M 517.175 400.055 Q 516.997 400.740 516.940 420.450 " stroke="#ceccc5"/>
  </g>
  <g id="Layer_Copy_2" opacity="1.000" transform="matrix(0, 0.531269, -0.53917, 0, 601.48822, -88.173615)">
    <path id="STROKE_7776f513-cdff-4300-a69c-e5fde30f2d33" opacity="0.680" fill="none" stroke-width="6.160" stroke-opacity="1.000" stroke-linecap="round" stroke-linejoin="round" d="M 631.854 274.303 Q 632.198 274.373 632.466 274.442 Q 632.735 274.510 636.069 275.085 Q 639.403 275.661 643.371 275.859 Q 647.338 276.056 649.216 275.856 Q 651.093 275.657 652.896 275.012 Q 654.700 274.367 655.726 273.685 Q 656.752 273.002 657.811 271.780 Q 658.871 270.559 659.401 269.388 Q 659.932 268.217 660.085 266.614 Q 660.237 265.012 660.088 264.110 Q 659.939 263.209 659.277 261.863 Q 658.614 260.518 656.398 258.641 Q 654.183 256.765 652.678 255.984 Q 651.173 255.204 649.762 254.595 Q 648.352 253.985 645.849 253.139 Q 643.346 252.294 642.224 251.971 Q 641.102 251.648 640.705 251.531 Q 640.308 251.415 639.794 251.326 Q 639.914 251.355 642.409 251.430 Q 644.903 251.505 648.523 250.975 Q 652.143 250.445 654.041 249.490 Q 655.939 248.535 657.147 247.245 Q 658.355 245.954 659.004 244.696 Q 659.654 243.438 659.935 241.813 Q 660.216 240.188 659.738 237.921 Q 659.260 235.655 658.166 234.091 Q 657.071 232.527 656.126 231.672 Q 655.181 230.817 652.042 229.131 Q 648.902 227.445 647.276 226.870 Q 645.650 226.295 641.884 225.436 Q 638.118 224.577 633.529 224.229 Q 633.427 224.188 633.352 224.336 Q 633.277 224.484 633.172 224.562 " stroke="#000000"/>
    <path id="STROKE_2eb67ecf-07a4-4ee8-bc8a-9341876bbf5e" opacity="0.680" fill="none" stroke-width="6.514" stroke-opacity="1.000" stroke-linecap="round" stroke-linejoin="round" d="M 637.208 203.530 Q 637.207 203.395 636.978 202.835 Q 636.749 202.274 636.571 201.875 Q 636.392 201.476 636.316 201.326 Q 636.239 201.176 635.912 199.548 Q 635.585 197.921 635.604 196.697 Q 635.624 195.473 635.854 194.294 Q 636.083 193.116 637.301 191.058 Q 638.518 189.001 639.577 187.984 Q 640.636 186.967 642.252 186.030 Q 643.868 185.093 646.331 184.578 Q 648.794 184.062 650.807 184.303 Q 652.821 184.544 654.689 185.451 Q 656.557 186.359 657.582 187.223 Q 658.607 188.087 659.159 188.791 Q 659.712 189.496 659.948 189.862 Q 660.184 190.228 660.301 190.466 Q 660.418 190.705 660.585 190.956 Q 660.752 191.207 661.453 194.006 Q 662.154 196.805 661.976 198.978 Q 661.798 201.151 661.401 202.340 Q 661.004 203.530 660.538 204.362 Q 660.072 205.194 657.975 207.205 Q 655.877 209.216 654.654 209.939 Q 653.431 210.663 651.381 211.148 Q 649.330 211.633 647.669 211.488 Q 646.009 211.343 644.403 210.718 Q 642.797 210.093 641.924 209.590 Q 641.050 209.087 640.196 208.179 Q 639.341 207.270 638.805 206.198 Q 638.269 205.126 638.142 204.626 Q 638.016 204.127 637.962 203.754 Q 637.908 203.381 638.123 202.952 Q 638.338 202.524 639.201 201.167 " stroke="#000000"/>
    <path id="STROKE_9ba40fce-36ca-4b35-a4fe-e01d175ececb" opacity="0.680" fill="none" stroke-width="6.657" stroke-opacity="1.000" stroke-linecap="round" stroke-linejoin="round" d="M 661.727 169.541 Q 661.480 169.570 658.028 170.709 Q 654.575 171.848 652.149 172.491 Q 649.722 173.134 646.139 173.370 Q 642.556 173.605 640.111 173.184 Q 637.667 172.763 636.657 172.321 Q 635.648 171.878 635.076 171.392 Q 634.624 170.782 634.432 170.641 Q 634.240 170.500 633.604 169.785 Q 632.968 169.071 632.591 168.361 Q 632.214 167.651 631.873 166.721 Q 631.531 165.790 631.292 163.527 Q 631.054 161.263 631.269 159.621 Q 631.485 157.978 632.434 155.895 Q 633.383 153.812 639.206 146.694 Q 639.293 146.397 639.324 146.303 Q 639.354 146.208 639.876 145.593 " stroke="#000000"/>
    <path id="STROKE_ee656d38-01d6-4f20-95ee-38a30bc785c8" opacity="0.680" fill="none" stroke-width="7.486" stroke-opacity="1.000" stroke-linecap="round" stroke-linejoin="round" d="M 660.906 124.705 L 660.574 124.694 Q 659.943 124.804 655.221 125.662 Q 650.499 126.520 646.704 127.011 Q 642.909 127.502 636.013 128.329 Q 629.117 129.156 621.746 130.281 Q 614.375 131.407 610.644 132.040 Q 606.913 132.673 600.593 133.662 Q 594.273 134.651 590.802 135.185 Q 587.331 135.719 583.195 136.476 Q 583.172 136.500 584.552 137.445 " stroke="#000000"/>
    <circle id="STROKE_911b61ca-fa1f-4c3d-b5de-446cccf9ac18" opacity="0.680" fill="#000000" stroke-width="0.1" stroke-opacity="1.000" fill-opacity="1.000" cx="635.423" cy="94.863" r="1.193" stroke="#000000"/>
    <path id="STROKE_a948e9ea-193d-48f5-8b82-ecefef3446ce" opacity="0.680" fill="none" stroke-width="5.685" stroke-opacity="1.000" stroke-linecap="round" stroke-linejoin="round" d="M 639.153 93.694 Q 639.002 93.744 638.465 93.921 Q 637.927 94.097 637.552 94.253 Q 637.176 94.409 636.952 94.558 Q 636.729 94.707 636.391 94.983 Q 636.054 95.259 635.837 95.492 Q 635.620 95.725 635.171 96.471 Q 634.722 97.218 634.485 98.082 Q 634.248 98.946 634.245 100.223 Q 634.243 101.499 634.551 102.594 Q 634.859 103.688 635.984 105.038 Q 637.108 106.388 641.686 107.819 Q 646.263 109.250 649.559 109.167 Q 652.854 109.084 654.575 108.594 Q 656.295 108.104 657.558 107.189 Q 658.821 106.275 659.487 105.375 Q 660.152 104.474 660.417 103.870 Q 660.682 103.266 660.916 102.234 Q 661.149 101.203 661.097 99.240 Q 661.045 97.278 660.713 96.014 Q 660.381 94.751 660.079 94.046 Q 659.777 93.341 659.470 92.831 Q 659.163 92.320 658.909 91.913 Q 658.654 91.506 656.116 88.888 Q 656.038 88.763 655.810 88.668 " stroke="#000000"/>
    <path id="STROKE_e794af6c-d2ac-4710-8a29-aba49276ef43" opacity="0.680" fill="none" stroke-width="7.415" stroke-opacity="1.000" stroke-linecap="round" stroke-linejoin="round" d="M 661.019 86.836 L 660.617 86.872 L 660.194 86.906 L 659.506 87.047 Q 658.746 87.239 657.378 87.684 Q 656.009 88.129 653.769 88.695 Q 651.528 89.261 649.242 89.804 Q 646.956 90.347 645.913 90.617 Q 644.870 90.887 643.991 91.138 Q 643.113 91.389 642.064 91.698 Q 641.015 92.006 638.808 92.501 Q 636.601 92.996 633.074 93.552 Q 629.547 94.107 624.178 94.992 Q 618.808 95.877 613.985 96.824 Q 609.161 97.770 606.382 98.423 Q 603.603 99.075 597.164 100.906 Q 590.725 102.736 586.500 104.179 Q 582.275 105.622 580.201 106.904 Q 580.167 107.131 581.379 107.082 Q 582.590 107.032 583.844 106.795 " stroke="#000000"/>
  </g>
  <g id="Layer_Copy_3" opacity="1.000" transform="matrix(0, 0.531269, -0.53917, 0, 601.48822, -88.173615)">
    <path id="STROKE_ee42c887-ed25-445a-81d3-83ce4d95264b" opacity="0.680" fill="none" stroke-width="5.555" stroke-opacity="1.000" stroke-linecap="round" stroke-linejoin="round" d="M 508.777 442.184 Q 506.988 441.885 505.568 441.726 Q 504.148 441.567 500.525 441.379 Q 496.902 441.191 493.654 441.273 Q 490.406 441.354 483.511 441.664 Q 476.617 441.974 464.655 441.996 Q 452.692 442.018 448.671 442.152 Q 444.649 442.286 442.607 442.536 Q 440.565 442.786 436.298 443.823 " stroke="#000000"/>
    <path id="STROKE_91f6fc11-d1ca-49ba-81a0-a71b022cd086" opacity="0.680" fill="none" stroke-width="3.904" stroke-opacity="1.000" stroke-linecap="round" stroke-linejoin="round" d="M 486.091 439.424 Q 485.963 439.360 485.802 439.189 Q 485.641 439.018 484.580 438.487 Q 483.519 437.956 482.658 437.386 Q 481.796 436.817 481.341 436.398 Q 480.885 435.979 480.613 435.731 Q 480.341 435.484 479.748 434.712 Q 479.155 433.941 478.405 432.074 Q 477.654 430.208 477.586 428.942 Q 477.519 427.676 478.260 426.122 Q 479.000 424.567 479.671 423.840 Q 480.342 423.113 481.127 422.434 Q 481.913 421.755 484.553 420.511 Q 487.193 419.267 488.819 418.818 Q 490.444 418.369 492.973 417.850 Q 495.501 417.330 498.419 416.962 Q 501.338 416.594 504.154 416.322 L 503.825 415.981 " stroke="#000000"/>
    <path id="STROKE_42bc02b8-2239-401a-aa8a-060119c50dd6" opacity="0.680" fill="none" stroke-width="4.856" stroke-opacity="1.000" stroke-linecap="round" stroke-linejoin="round" d="M 510.723 385.633 L 510.600 386.260 Q 510.579 386.385 509.953 387.981 Q 509.328 389.577 508.027 391.362 Q 506.726 393.147 505.806 394.020 Q 504.886 394.892 503.807 395.665 Q 502.728 396.438 501.860 396.967 Q 500.992 397.497 499.190 398.217 Q 497.388 398.936 494.567 399.302 Q 491.747 399.668 490.334 399.540 Q 488.921 399.412 487.466 398.901 Q 486.012 398.390 485.038 397.639 Q 484.064 396.889 483.634 396.365 Q 483.204 395.842 482.611 394.189 Q 482.019 392.537 481.982 391.402 Q 481.946 390.267 482.521 388.941 Q 483.096 387.614 483.798 386.989 Q 484.500 386.364 485.566 386.102 Q 486.633 385.839 487.218 385.914 Q 487.803 385.989 488.241 386.196 Q 488.680 386.403 489.086 386.810 Q 489.492 387.216 489.883 387.901 Q 490.273 388.585 490.710 390.431 Q 491.146 392.276 491.087 393.684 Q 491.028 395.092 490.903 395.856 Q 490.779 396.619 490.432 398.119 " stroke="#000000"/>
    <path id="STROKE_8cb89ddb-9bb7-4f6a-bb56-c030585774ee" opacity="0.680" fill="none" stroke-width="4.546" stroke-opacity="1.000" stroke-linecap="round" stroke-linejoin="round" d="M 441.041 367.361 Q 440.914 367.348 440.785 367.298 Q 440.655 367.247 440.576 367.265 Q 440.496 367.284 440.506 367.315 Q 440.516 367.346 443.290 367.438 Q 446.064 367.529 454.887 367.557 Q 463.710 367.585 468.610 367.463 Q 473.510 367.341 476.848 367.223 Q 480.186 367.106 484.862 366.979 Q 489.538 366.853 497.382 367.117 Q 505.225 367.380 508.776 367.833 Q 512.326 368.286 513.730 368.569 Q 515.133 368.852 515.788 369.062 Q 516.443 369.273 518.585 370.326 " stroke="#000000"/>
    <path id="STROKE_49d2d713-134f-4c32-8e2a-841fdd16af07" opacity="0.680" fill="none" stroke-width="4.586" stroke-opacity="1.000" stroke-linecap="round" stroke-linejoin="round" d="M 440.381 344.232 L 440.794 344.170 Q 441.288 344.096 448.105 344.260 Q 454.921 344.423 461.726 345.007 Q 468.530 345.591 473.473 345.919 Q 478.415 346.247 481.519 346.399 Q 484.622 346.550 492.050 346.530 Q 499.478 346.510 505.745 346.142 Q 512.011 345.774 514.954 345.818 Q 517.897 345.862 519.562 346.408 Q 519.637 346.602 519.475 346.876 Q 519.313 347.151 519.035 347.703 " stroke="#000000"/>
    <path id="STROKE_37dd99cc-a617-4d73-9c38-2e17a65d2c3e" opacity="0.680" fill="none" stroke-width="3.516" stroke-opacity="1.000" stroke-linecap="round" stroke-linejoin="round" d="M 487.217 326.057 Q 487.014 325.816 485.369 324.133 Q 483.724 322.449 483.491 322.089 Q 483.257 321.729 482.977 321.134 Q 482.697 320.539 482.571 320.052 Q 482.445 319.566 482.422 318.271 Q 482.399 316.975 482.634 316.143 Q 482.870 315.310 483.239 314.628 Q 483.607 313.947 485.436 312.466 Q 487.265 310.985 489.013 310.178 Q 490.761 309.372 494.039 308.738 Q 497.316 308.105 500.273 308.158 Q 503.229 308.211 505.178 308.669 Q 507.127 309.127 508.171 309.568 Q 509.215 310.010 509.906 310.362 Q 510.597 310.714 512.122 311.902 Q 513.647 313.091 514.576 314.284 Q 515.506 315.478 515.955 316.777 Q 516.403 318.075 516.424 319.711 Q 516.445 321.346 515.455 323.407 Q 514.465 325.467 513.466 326.554 Q 512.467 327.641 510.704 328.722 Q 508.940 329.803 506.391 330.275 Q 503.842 330.747 502.314 330.666 Q 500.785 330.585 499.641 330.370 Q 498.497 330.154 495.821 329.203 Q 493.146 328.252 490.484 326.843 Q 487.822 325.434 484.049 323.297 " stroke="#000000"/>
  </g>
  <g id="Layer_Copy_4" opacity="1.000" transform="matrix(0, 0.531269, -0.53917, 0, 601.48822, -88.173615)">
    <path id="STROKE_57654dbc-d382-4a91-b446-9d73f471bb8a" opacity="0.680" fill="none" stroke-width="6.477" stroke-opacity="1.000" stroke-linecap="round" stroke-linejoin="round" d="M 574.262 344.732 L 574.749 344.617 Q 575.065 344.554 585.647 344.883 Q 596.229 345.212 602.735 345.537 Q 609.240 345.863 612.757 346.030 Q 616.275 346.197 625.136 346.582 Q 633.998 346.968 645.400 347.802 Q 656.802 348.636 663.349 349.181 Q 669.896 349.725 673.643 350.025 Q 677.390 350.325 679.962 350.538 Q 682.534 350.750 702.205 351.389 Q 702.209 351.433 701.964 351.613 Q 701.720 351.792 701.282 352.071 " stroke="#ceccc5"/>
    <path id="STROKE_f1ed23be-adad-4613-bb27-6f7d109e9d52" opacity="0.680" fill="none" stroke-width="7.057" stroke-opacity="1.000" stroke-linecap="round" stroke-linejoin="round" d="M 573.635 343.739 Q 573.539 343.387 573.393 343.038 Q 573.248 342.689 573.157 342.329 Q 573.067 341.968 573.073 341.778 Q 573.079 341.587 572.848 340.136 Q 572.617 338.684 572.282 335.618 Q 571.948 332.553 572.073 326.403 Q 572.197 320.252 572.094 311.128 Q 571.990 302.003 571.880 297.435 Q 571.770 292.867 571.825 290.315 Q 571.881 287.762 571.781 282.311 Q 571.681 276.859 570.969 268.188 Q 570.257 259.516 569.938 253.946 Q 569.619 248.376 569.646 244.071 Q 569.672 239.765 569.688 236.545 Q 569.703 233.326 569.657 229.904 Q 569.611 226.482 570.004 220.187 Q 570.397 213.892 570.618 210.670 Q 570.839 207.447 570.865 202.307 Q 570.890 197.166 570.983 193.483 Q 571.076 189.800 571.905 185.241 Q 572.735 180.682 574.159 177.083 Q 575.583 173.485 576.545 172.251 Q 577.507 171.017 577.749 170.942 Q 577.990 170.867 590.988 171.010 Q 603.985 171.152 611.730 171.819 Q 619.475 172.486 622.761 172.931 Q 626.048 173.375 632.195 174.194 Q 638.343 175.013 642.256 175.378 Q 646.169 175.743 651.862 176.028 Q 657.555 176.313 661.393 176.269 Q 665.231 176.226 670.946 176.055 Q 676.661 175.884 680.090 175.976 Q 683.519 176.067 685.942 176.316 Q 688.366 176.565 693.469 177.173 Q 698.571 177.781 701.723 178.091 Q 704.874 178.401 706.986 178.517 Q 709.097 178.633 710.149 178.686 Q 711.200 178.740 712.268 178.870 Q 713.335 179.000 713.904 179.123 Q 714.474 179.246 715.239 179.395 Q 716.005 179.545 716.579 179.669 Q 717.153 179.793 721.373 181.356 Q 721.680 181.699 722.127 182.192 Q 722.575 182.686 723.008 183.343 Q 723.440 184.000 723.711 184.571 Q 723.983 185.142 724.279 186.002 Q 724.575 186.862 724.809 188.651 Q 725.043 190.439 725.131 193.235 Q 725.218 196.031 725.212 199.865 Q 725.206 203.699 725.265 211.514 Q 725.324 219.329 725.493 224.546 Q 725.661 229.764 725.637 234.212 Q 725.612 238.661 725.883 243.202 Q 726.153 247.744 726.727 253.383 Q 727.300 259.021 727.753 267.331 Q 728.207 275.640 728.416 279.860 Q 728.626 284.080 728.759 286.282 Q 728.892 288.484 728.975 289.513 Q 729.058 290.542 729.612 296.792 Q 730.165 303.042 730.410 306.553 Q 730.654 310.064 730.554 314.268 Q 730.455 318.471 729.765 323.779 Q 729.076 329.088 728.108 333.302 Q 727.140 337.515 726.576 339.269 Q 726.011 341.022 725.668 341.983 Q 725.324 342.945 724.321 344.884 Q 723.319 346.824 722.330 347.990 Q 721.341 349.157 720.353 349.741 Q 719.389 349.897 718.932 349.955 Q 718.475 350.014 717.306 350.099 Q 716.138 350.185 713.888 350.156 Q 711.638 350.127 709.464 349.989 Q 707.290 349.850 704.743 349.623 Q 702.197 349.396 701.139 349.251 Q 700.082 349.106 697.975 348.672 Q 695.868 348.239 693.854 347.796 " stroke="#ceccc5"/>
    <path id="STROKE_c9c899b8-79f2-4afe-9a47-58b6ef00ab94" opacity="0.680" fill="none" stroke-width="6.323" stroke-opacity="1.000" stroke-linecap="round" stroke-linejoin="round" d="M 721.769 178.708 L 721.764 178.164 Q 721.600 177.663 719.667 170.742 Q 717.734 163.821 716.298 159.837 Q 714.861 155.853 713.663 153.029 Q 712.464 150.205 707.947 140.821 Q 703.429 131.438 698.591 122.926 Q 693.753 114.414 691.020 109.856 Q 688.288 105.298 686.538 102.112 Q 684.789 98.925 681.467 92.440 Q 678.146 85.954 674.818 78.199 Q 671.491 70.444 669.694 65.238 Q 667.897 60.032 666.962 56.645 Q 666.026 53.257 665.838 51.626 Q 666.056 51.470 667.073 52.614 Q 668.091 53.758 669.138 55.303 " stroke="#ceccc5"/>
    <path id="STROKE_f56cd007-7078-4800-bb70-6121539fd610" opacity="0.680" fill="none" stroke-width="4.126" stroke-opacity="1.000" stroke-linecap="round" stroke-linejoin="round" d="M 577.633 173.611 Q 577.443 173.002 576.957 171.146 Q 576.471 169.291 574.448 164.689 Q 572.424 160.088 570.678 156.366 Q 568.932 152.645 568.099 150.749 Q 567.265 148.853 564.954 143.364 Q 562.643 137.875 558.885 129.709 Q 555.126 121.543 552.785 116.389 Q 550.444 111.235 548.651 107.154 Q 546.857 103.073 545.954 101.073 Q 545.052 99.074 542.823 94.127 Q 540.594 89.180 538.829 84.774 Q 537.064 80.368 535.536 75.007 Q 534.009 69.645 533.651 66.035 Q 533.704 66.003 534.431 66.126 Q 535.157 66.248 535.867 66.485 " stroke="#ceccc5"/>
    <path id="STROKE_7c12441b-a961-4a0d-8eda-4a5e08869b69" opacity="0.680" fill="none" stroke-width="3.934" stroke-opacity="1.000" stroke-linecap="round" stroke-linejoin="round" d="M 536.189 58.332 Q 536.544 58.269 536.796 58.290 Q 537.232 58.404 540.615 58.416 Q 543.999 58.428 549.621 58.228 Q 555.243 58.027 560.800 57.665 Q 566.358 57.302 573.805 56.589 Q 581.252 55.876 593.023 54.801 Q 604.793 53.726 610.693 53.347 Q 616.592 52.968 619.405 52.788 Q 622.218 52.607 634.251 52.839 Q 646.285 53.071 652.922 53.494 Q 659.560 53.918 664.282 54.281 Q 669.004 54.644 672.663 54.836 Q 676.322 55.027 679.191 55.081 Q 682.060 55.135 681.444 55.144 Q 680.828 55.153 679.835 55.109 " stroke="#ceccc5"/>
    <path id="STROKE_60d154b0-629b-41e0-aaec-fa40f7a56ec4" opacity="0.680" fill="none" stroke-width="4.842" stroke-opacity="1.000" stroke-linecap="round" stroke-linejoin="round" d="M 571.170 340.641 Q 570.156 338.990 569.965 338.705 Q 569.774 338.421 567.370 334.214 Q 564.966 330.007 560.981 318.506 Q 556.995 307.005 555.182 301.012 Q 553.368 295.018 552.306 292.071 Q 551.244 289.123 549.051 284.864 Q 546.858 280.605 543.982 275.877 Q 541.105 271.149 538.575 266.354 Q 536.046 261.559 533.815 253.787 Q 531.583 246.015 531.061 239.838 Q 531.121 239.673 531.252 238.061 " stroke="#ceccc5"/>
    <path id="STROKE_e467bcfa-ef3f-446b-b4ce-a2a76c3c3283" opacity="0.680" fill="none" stroke-width="6.433" stroke-opacity="1.000" stroke-linecap="round" stroke-linejoin="round" d="M 529.637 70.461 Q 529.639 70.323 530.347 69.876 Q 530.359 69.864 530.326 70.093 Q 530.324 70.127 530.605 72.043 Q 530.886 73.959 530.994 75.720 Q 531.102 77.480 531.183 81.241 Q 531.265 85.002 531.458 91.640 Q 531.651 98.278 531.920 102.103 Q 532.189 105.927 533.087 111.190 Q 533.985 116.453 534.546 119.768 Q 535.106 123.082 535.337 124.977 Q 535.567 126.872 535.733 128.977 Q 535.898 131.082 535.946 131.790 Q 535.993 132.497 535.998 136.283 Q 536.003 140.068 535.929 142.541 Q 535.854 145.014 535.763 147.036 Q 535.672 149.058 535.393 154.902 Q 535.115 160.745 535.141 163.892 Q 535.167 167.039 535.217 169.534 Q 535.266 172.028 535.166 175.130 Q 535.066 178.233 534.784 181.494 Q 534.502 184.755 534.379 187.102 Q 534.255 189.448 534.370 191.989 Q 534.485 194.529 534.627 196.006 Q 534.770 197.483 535.029 200.274 Q 535.289 203.066 535.344 206.593 Q 535.399 210.121 535.410 213.205 Q 535.421 216.289 535.423 218.704 Q 535.426 221.119 535.375 222.516 Q 535.324 223.912 535.033 225.687 Q 534.743 227.461 533.226 231.743 " stroke="#ceccc5"/>
    <path id="STROKE_6cd9c279-b93b-45e7-aae3-e961b4b24272" opacity="0.680" fill="none" stroke-width="6.477" stroke-opacity="1.000" stroke-linecap="round" stroke-linejoin="round" d="M 423.935 519.237 L 424.422 519.122 Q 424.739 519.059 435.321 519.388 Q 445.902 519.717 452.408 520.042 Q 458.913 520.368 462.431 520.535 Q 465.948 520.702 474.810 521.087 Q 483.671 521.473 495.074 522.307 Q 506.476 523.141 513.023 523.686 Q 519.570 524.230 523.317 524.530 Q 527.063 524.830 529.635 525.042 Q 532.208 525.255 551.878 525.894 Q 551.883 525.938 551.638 526.118 Q 551.393 526.297 550.955 526.576 " stroke="#ceccc5"/>
    <path id="STROKE_0e9b588c-db2c-4c8e-ab1e-6b66b25c0703" opacity="0.680" fill="none" stroke-width="7.057" stroke-opacity="1.000" stroke-linecap="round" stroke-linejoin="round" d="M 423.309 518.244 Q 423.212 517.892 423.067 517.543 Q 422.921 517.194 422.831 516.833 Q 422.740 516.473 422.746 516.282 Q 422.753 516.092 422.522 514.641 Q 422.291 513.189 421.956 510.123 Q 421.621 507.058 421.746 500.907 Q 421.871 494.757 421.767 485.633 Q 421.664 476.508 421.553 471.940 Q 421.443 467.372 421.499 464.820 Q 421.554 462.267 421.455 456.815 Q 421.355 451.364 420.643 442.693 Q 419.930 434.021 419.611 428.451 Q 419.293 422.881 419.319 418.576 Q 419.345 414.270 419.361 411.050 Q 419.376 407.831 419.330 404.409 Q 419.284 400.987 419.677 394.692 Q 420.070 388.397 420.291 385.175 Q 420.512 381.952 420.538 376.812 Q 420.563 371.671 420.656 367.988 Q 420.749 364.305 421.579 359.746 Q 422.408 355.186 423.832 351.588 Q 425.256 347.990 426.218 346.756 Q 427.181 345.522 427.422 345.447 Q 427.664 345.372 440.661 345.515 Q 453.658 345.657 461.403 346.324 Q 469.148 346.991 472.435 347.435 Q 475.721 347.880 481.869 348.699 Q 488.016 349.518 491.929 349.883 Q 495.842 350.248 501.535 350.533 Q 507.228 350.818 511.066 350.774 Q 514.904 350.731 520.620 350.560 Q 526.335 350.389 529.763 350.480 Q 533.192 350.572 535.616 350.821 Q 538.039 351.069 543.142 351.678 Q 548.245 352.286 551.396 352.596 Q 554.547 352.906 556.659 353.022 Q 558.771 353.138 559.822 353.191 Q 560.873 353.245 561.941 353.375 Q 563.009 353.505 563.578 353.628 Q 564.147 353.750 564.912 353.900 Q 565.678 354.050 566.252 354.174 Q 566.826 354.298 571.046 355.861 Q 571.353 356.204 571.801 356.697 Q 572.248 357.191 572.681 357.848 Q 573.114 358.505 573.385 359.076 Q 573.656 359.647 573.952 360.507 Q 574.248 361.367 574.483 363.155 Q 574.717 364.944 574.804 367.740 Q 574.891 370.536 574.885 374.370 Q 574.879 378.204 574.939 386.019 Q 574.998 393.834 575.166 399.051 Q 575.335 404.269 575.310 408.717 Q 575.285 413.165 575.556 417.707 Q 575.827 422.249 576.400 427.887 Q 576.973 433.526 577.427 441.836 Q 577.880 450.145 578.090 454.365 Q 578.299 458.585 578.432 460.787 Q 578.566 462.989 578.649 464.018 Q 578.732 465.047 579.285 471.297 Q 579.838 477.547 580.083 481.058 Q 580.327 484.569 580.228 488.772 Q 580.128 492.976 579.439 498.284 Q 578.749 503.593 577.781 507.807 Q 576.813 512.020 576.249 513.773 Q 575.685 515.527 575.341 516.488 Q 574.997 517.450 573.995 519.389 Q 572.992 521.329 572.003 522.495 Q 571.014 523.662 570.026 524.246 Q 569.062 524.402 568.605 524.460 Q 568.148 524.519 566.980 524.604 Q 565.811 524.690 563.561 524.661 Q 561.311 524.632 559.137 524.494 Q 556.963 524.355 554.417 524.128 Q 551.870 523.901 550.812 523.756 Q 549.755 523.611 547.648 523.177 Q 545.542 522.744 543.528 522.301 " stroke="#ceccc5"/>
    <path id="STROKE_6996557e-f1f3-4a56-9475-f36b08293633" opacity="0.680" fill="none" stroke-width="6.323" stroke-opacity="1.000" stroke-linecap="round" stroke-linejoin="round" d="M 572.248 353.332 L 572.244 352.811 Q 572.123 352.332 570.688 345.711 Q 569.253 339.089 568.188 335.278 Q 567.122 331.466 566.232 328.764 Q 565.343 326.063 561.990 317.086 Q 558.638 308.109 555.048 299.965 Q 551.457 291.822 549.429 287.461 Q 547.401 283.101 546.103 280.052 Q 544.805 277.003 542.340 270.798 Q 539.875 264.594 537.406 257.175 Q 534.937 249.755 533.603 244.775 Q 532.270 239.794 531.575 236.553 Q 530.881 233.312 530.742 231.752 Q 530.903 231.603 531.658 232.697 Q 532.413 233.791 533.191 235.270 " stroke="#ceccc5"/>
    <path id="STROKE_defde580-640a-4e9d-b265-7e44514d7f10" opacity="0.680" fill="none" stroke-width="4.126" stroke-opacity="1.000" stroke-linecap="round" stroke-linejoin="round" d="M 427.307 348.116 Q 427.116 347.507 426.630 345.651 Q 426.144 343.795 424.121 339.194 Q 422.098 334.593 420.351 330.871 Q 418.605 327.150 417.772 325.254 Q 416.939 323.358 414.628 317.869 Q 412.316 312.380 408.558 304.214 Q 404.799 296.048 402.459 290.894 Q 400.118 285.740 398.324 281.659 Q 396.530 277.578 395.628 275.578 Q 394.725 273.579 392.496 268.632 Q 390.267 263.685 388.502 259.279 Q 386.738 254.873 385.210 249.512 Q 383.682 244.150 383.324 240.540 Q 383.378 240.508 384.104 240.631 Q 384.830 240.753 385.541 240.990 " stroke="#ceccc5"/>
    <path id="STROKE_897ca70c-ad20-47b1-88b1-46a5d8eb632c" opacity="0.680" fill="none" stroke-width="3.934" stroke-opacity="1.000" stroke-linecap="round" stroke-linejoin="round" d="M 385.862 232.837 Q 386.218 232.774 386.469 232.795 Q 386.905 232.909 390.289 232.921 Q 393.673 232.933 399.295 232.732 Q 404.916 232.532 410.474 232.170 Q 416.031 231.807 423.478 231.094 Q 430.925 230.381 442.696 229.306 Q 454.466 228.231 460.366 227.852 Q 466.265 227.473 469.078 227.293 Q 471.891 227.112 483.925 227.344 Q 495.959 227.575 502.596 227.999 Q 509.233 228.423 513.955 228.786 Q 518.677 229.149 522.336 229.341 Q 525.995 229.532 528.864 229.586 Q 531.734 229.640 531.118 229.649 Q 530.502 229.658 529.508 229.614 " stroke="#ceccc5"/>
    <path id="STROKE_07a60b0b-d9c4-4dc5-abab-5f1bc0e4cad6" opacity="0.680" fill="none" stroke-width="4.842" stroke-opacity="1.000" stroke-linecap="round" stroke-linejoin="round" d="M 421.331 515.631 Q 420.464 514.219 420.301 513.975 Q 420.138 513.732 418.082 510.132 Q 416.025 506.532 412.616 496.691 Q 409.207 486.849 407.656 481.720 Q 406.105 476.592 405.197 474.070 Q 404.288 471.547 402.413 467.903 Q 400.537 464.259 398.076 460.213 Q 395.616 456.167 393.452 452.064 Q 391.289 447.961 389.380 441.310 Q 387.472 434.659 387.025 429.374 Q 387.077 429.233 387.188 427.854 " stroke="#ceccc5"/>
    <path id="STROKE_3a8eeed6-eaf1-4f08-974a-c46b78b29c26" opacity="0.680" fill="none" stroke-width="6.433" stroke-opacity="1.000" stroke-linecap="round" stroke-linejoin="round" d="M 379.600 258.868 Q 379.604 258.716 380.790 258.224 Q 380.811 258.211 380.756 258.463 Q 380.751 258.500 381.222 260.608 Q 381.694 262.715 381.874 264.651 Q 382.055 266.588 382.192 270.724 Q 382.329 274.860 382.652 282.161 Q 382.975 289.463 383.426 293.669 Q 383.877 297.876 385.382 303.665 Q 386.886 309.454 387.826 313.099 Q 388.765 316.745 389.151 318.829 Q 389.537 320.912 389.815 323.228 Q 390.092 325.543 390.171 326.322 Q 390.250 327.100 390.259 331.263 Q 390.267 335.427 390.143 338.147 Q 390.018 340.867 389.865 343.091 Q 389.712 345.314 389.246 351.742 Q 388.779 358.169 388.823 361.631 Q 388.867 365.092 388.950 367.836 Q 389.033 370.579 388.865 373.991 Q 388.697 377.403 388.225 380.990 Q 387.753 384.577 387.546 387.158 Q 387.339 389.739 387.531 392.533 Q 387.724 395.327 387.962 396.952 Q 388.201 398.577 388.636 401.647 Q 389.072 404.717 389.164 408.597 Q 389.255 412.477 389.274 415.869 Q 389.293 419.261 389.296 421.917 Q 389.300 424.574 389.215 426.110 Q 389.129 427.646 388.643 429.598 Q 388.156 431.549 385.614 436.259 " stroke="#ceccc5"/>
  </g>
</svg>